<svg width="38" height="39" viewBox="0 0 38 39" fill="none" xmlns="http://www.w3.org/2000/svg">
<path d="M18.5041 33.97C18.0717 33.97 17.6815 34.0915 17.3467 34.2945L9.15793 29.7099C9.15793 29.6691 9.15793 29.6292 9.15793 29.5884C9.15793 28.8039 8.6835 28.114 8.00051 27.7895V12.2237C8.6844 11.8853 9.15793 11.2092 9.15793 10.4117C9.15793 10.3709 9.15793 10.3301 9.15793 10.2902L13.5101 7.85604L24.0003 13.725V25.2477L20.6104 23.3411C20.6104 23.3003 20.6104 23.2595 20.6104 23.2196C20.6104 22.1106 19.6893 21.2046 18.5318 21.2046C17.3879 21.2046 16.4533 22.1106 16.4533 23.2196C16.4533 24.3287 17.3879 25.2347 18.5318 25.2347C18.9642 25.2347 19.3545 25.1132 19.6893 24.8962L24.4183 27.5465C24.5579 27.6411 24.7387 27.7088 24.9348 27.7088C25.4513 27.7088 25.8693 27.3026 25.8693 26.8028V13.1974V12.6836L25.3949 12.4268L13.9836 6.03018L13.5235 5.77332L13.0491 6.03018L8.22251 8.73513C7.90205 8.51904 7.51087 8.39668 7.07852 8.39668C5.93453 8.39668 5 9.30267 5 10.4117C5 11.2092 5.47442 11.8861 6.15742 12.2237V27.7895C5.47353 28.114 5 28.8039 5 29.5884C5 30.7105 5.93453 31.6035 7.07852 31.6035C7.49744 31.6035 7.90115 31.482 8.22251 31.265L16.4247 35.8635C16.4247 35.9043 16.4247 35.9451 16.4247 35.985C16.4247 37.0941 17.3458 38 18.5032 38C19.6472 38 20.5817 37.0941 20.5817 35.985C20.5826 34.8629 19.6481 33.97 18.5041 33.97Z" fill="url(#paint0_linear_3403_90595)"/>
<path d="M30.8504 27.7894V12.2236C31.5343 11.8851 32.0078 11.2091 32.0078 10.4116C32.0078 9.30256 31.0733 8.39658 29.915 8.39658C29.4961 8.39658 29.1058 8.51807 28.771 8.73502L20.5822 4.15042C20.5822 4.10963 20.5822 4.06884 20.5822 4.02892C20.5822 2.90685 19.6477 2 18.5037 2C17.3463 2 16.4252 2.90599 16.4252 4.02892C16.4252 5.13798 17.3463 6.04396 18.5037 6.04396C18.9227 6.04396 19.3129 5.92247 19.6477 5.70552L27.8499 10.2901C27.8356 10.3309 27.8356 10.3717 27.8356 10.4116C27.8356 11.2091 28.31 11.886 28.993 12.2236V27.7894C28.3091 28.1139 27.8356 28.8038 27.8356 29.5883C27.8356 29.6291 27.8356 29.669 27.8499 29.7098L23.4834 32.1579L12.9932 26.2889V14.7663L16.5085 16.7275C16.4941 16.7683 16.4941 16.8091 16.4941 16.849C16.4941 17.971 17.4287 18.864 18.5727 18.864C19.7301 18.864 20.6655 17.971 20.6655 16.849C20.6655 15.7399 19.731 14.8339 18.5727 14.8339C18.1537 14.8339 17.7634 14.9554 17.4287 15.1724L12.5322 12.4267C12.3926 12.359 12.2252 12.3052 12.0578 12.3052C11.5556 12.3052 11.1367 12.7113 11.1367 13.1981V26.8027V27.3164L11.5968 27.5733L23.0215 33.9699L23.4816 34.2267L23.9417 33.9699L28.7683 31.2649C29.1031 31.481 29.4934 31.6034 29.9123 31.6034C31.0697 31.6034 32.0051 30.7104 32.0051 29.5883C32.0078 28.8038 31.5334 28.1139 30.8504 27.7894Z" fill="url(#paint1_linear_3403_90595)"/>
<defs>
<linearGradient id="paint0_linear_3403_90595" x1="5.00062" y1="21.8866" x2="25.8695" y2="21.8866" gradientUnits="userSpaceOnUse">
<stop stop-color="#00FF7C"/>
<stop offset="1" stop-color="#00C4FF"/>
</linearGradient>
<linearGradient id="paint1_linear_3403_90595" x1="11.1391" y1="18.1133" x2="32.008" y2="18.1133" gradientUnits="userSpaceOnUse">
<stop stop-color="#00FF7C"/>
<stop offset="1" stop-color="#00C4FF"/>
</linearGradient>
</defs>
</svg>
